<mxfile host="app.diagrams.net" modified="2023-05-30T03:19:33.285Z" agent="Mozilla/5.0 (Windows NT 10.0; Win64; x64) AppleWebKit/537.36 (KHTML, like Gecko) Chrome/113.0.0.0 Safari/537.36" version="21.3.5" etag="WfdIoCbz1BxPz6Qz1rwm" type="github">
  <diagram name="PÃ¡gina-1" id="lvNGAnuRIkJvP-2t7TT4">
    <mxGraphModel>
      <root>
        <mxCell id="0" />
        <mxCell id="1" parent="0" />
      </root>
    </mxGraphModel>
  </diagram>
</mxfile>
